# xmcd
# Copyright (C) 1995-1998 Ti Kan
#
# Track frame offsets:
#       150
#       17785
#       37271
#       55681
#       71435
#       98410
#       118275
#       138202
#       151238
#       167236
#       183274
#
# Disc length: 2662 seconds
#
# Revision: 0
# Processed by: cddbd v1.5PL3 Copyright (c) Steve Scherf et al.
# Submitted via: CD-Transfer v1.0
#
DISCID=8d0a640b
DTITLE=Strange The - Nights Of Forgotten Films
DYEAR=04
DGENRE=
TTITLE0=Nights Of Forgotten Films
TTITLE1=Tonight I Will Say Anything
TTITLE2=River Of Twilight
TTITLE3=See It In The Dark
TTITLE4=Long Shadows
TTITLE5=Comin' Undone
TTITLE6=These Lies
TTITLE7=Gone Missing
TTITLE8=Run With The Hunted
TTITLE9=Willers Terrace
TTITLE10=The Girl On Death Row
EXTD=
EXTT0=
EXTT1=
EXTT2=
EXTT3=
EXTT4=
EXTT5=
EXTT6=
EXTT7=
EXTT8=
EXTT9=
EXTT10=
PLAYORDER=
